<?xml version="1.0" standalone="no"?>
<!DOCTYPE svg PUBLIC "-//W3C//DTD SVG 20010904//EN"
 "http://www.w3.org/TR/2001/REC-SVG-20010904/DTD/svg10.dtd">
<svg version="1.0" xmlns="http://www.w3.org/2000/svg"
 width="512.000000pt" height="512.000000pt" viewBox="0 0 512.000000 512.000000"
 preserveAspectRatio="xMidYMid meet">
<metadata>
Created by potrace 1.14, written by Peter Selinger 2001-2017
</metadata>
<g transform="translate(0.000000,512.000000) scale(0.100000,-0.100000)"
fill="#000000" stroke="none">
<path d="M0 2560 l0 -2560 2560 0 2560 0 0 2560 0 2560 -2560 0 -2560 0 0
-2560z m2388 1858 l-3 -73 -302 -3 -303 -2 0 -1780 0 -1780 303 -2 302 -3 3
-72 3 -73 -946 0 c-520 0 -948 0 -952 0 -5 0 -8 33 -8 73 l0 72 303 3 302 2 0
1780 0 1780 -302 2 -303 3 -3 73 -3 72 956 0 956 0 -3 -72z m1872 -3 l0 -75
-299 0 -298 0 -314 -321 c-173 -177 -329 -338 -348 -358 -19 -20 -116 -119
-215 -221 -100 -102 -230 -235 -290 -297 l-109 -112 89 -108 c49 -59 201 -243
339 -409 137 -165 358 -431 490 -590 131 -159 348 -419 480 -579 132 -159 292
-352 354 -427 l114 -138 191 -2 191 -3 0 -72 c0 -40 -3 -73 -7 -73 -5 0 -433
0 -953 0 l-946 0 3 73 3 72 328 0 c180 0 327 2 327 4 0 5 -52 70 -285 355
-121 148 -251 308 -289 355 -39 47 -129 158 -200 246 -211 257 -274 334 -406
496 -68 85 -175 216 -238 292 -62 76 -116 145 -119 153 -5 12 116 138 1101
1155 89 91 235 241 326 335 l165 169 -322 3 -323 2 0 75 0 75 730 0 730 0 0
-75z"/>
</g>
</svg>
